#!OML:ASF I:\Actors\actors\Patient Classification 1\Patient 1\Session 1\Subject1.ASF
:FULLY-SPECIFIED
:DEGREES
351
root -0.862358 17.5548 7.5129 7.73133 -11.0288 -9.2635
lowerback 3.24191 -2.02032 3.81544
upperback -7.34916 -2.262 2.22564
thorax -9.66728 -1.30095 0.499573
lowerneck -11.7841 1.35029 3.24293
upperneck 20.0439 -1.16179 10.5888
head 8.26398 0.714405 2.87935
rclavicle 5.32743e-014 3.97569e-016
rhumerus 35.0024 76.5652 -45.3525
rradius 121.205
rwrist -32.8505
rhand -3.68914 -60.859
rfingers 7.12502
rthumb 22.0524 -89.6216
lclavicle 5.32743e-014 3.97569e-016
lhumerus 17.5085 0.97734 74.3464
lradius 60.5061
lwrist 68.6343
lhand -4.06219 5.44102
lfingers 7.12502
lthumb 21.6942 34.2455
rfemur -2.31325 22.539 27.4604
rtibia 1.22683
rfoot -9.91838 -10.4784
rtoes -1.31699
lfemur 13.8799 -45.982 -17.8917
ltibia -4.65106
lfoot -37.3123 57.7842
ltoes 20.7674
352
root -0.862031 17.5558 7.51646 7.74519 -11.0301 -9.26057
lowerback 3.2683 -2.04435 3.81556
upperback -7.3548 -2.29293 2.22484
thorax -9.6902 -1.31625 0.503777
lowerneck -11.8097 1.41753 3.41237
upperneck 20.0502 -1.08355 10.4852
head 8.26778 0.755188 2.82469
rclavicle 3.72721e-014 -5.96354e-015
rhumerus 37.1054 76.6009 -43.248
rradius 121.336
rwrist -33.0491
rhand -4.02851 -60.88
rfingers 7.12502
rthumb 21.7266 -89.6808
lclavicle 3.72721e-014 -5.96354e-015
lhumerus 17.5016 1.02586 74.3485
lradius 60.5019
lwrist 68.6001
lhand -3.98421 5.48266
lfingers 7.12502
lthumb 21.7691 34.2785
rfemur -2.33243 22.5585 27.4514
rtibia 1.24891
rfoot -9.93705 -10.4919
rtoes -1.23462
lfemur 13.8276 -45.923 -17.8505
ltibia -4.63863
lfoot -37.1801 57.7593
ltoes 20.6129
353
root -0.862387 17.5565 7.51971 7.7785 -11.0421 -9.31559
lowerback 3.27259 -2.042 3.88573
upperback -7.34838 -2.28377 2.2281
thorax -9.68894 -1.31678 0.467176
lowerneck -11.9528 1.45967 3.56098
upperneck 20.1391 -1.04597 10.347
head 8.32265 0.778829 2.76146
rclavicle -2.15681e-014 3.29983e-014
rhumerus 37.4078 76.5652 -42.9396
rradius 121.328
rwrist -33.0929
rhand -4.16799 -60.8445
rfingers 7.12502
rthumb 21.5926 -89.6607
lclavicle -2.15681e-014 3.29983e-014
lhumerus 17.5539 1.03872 74.3753
lradius 60.4692
lwrist 68.5903
lhand -3.80895 5.45925
lfingers 7.12502
lthumb 21.9374 34.2354
rfemur -2.35796 22.5424 27.5088
rtibia 1.24956
rfoot -9.92686 -10.4724
rtoes -1.72623
lfemur 13.7757 -45.8453 -17.724
ltibia -4.66085
lfoot -37.0167 57.728
ltoes 20.5085
354
root -0.863277 17.5568 7.52306 7.81222 -11.0639 -9.37444
lowerback 3.25936 -2.03696 3.94704
upperback -7.34738 -2.27161 2.24337
thorax -9.68219 -1.31473 0.44736
lowerneck -12.0128 1.54147 3.67136
upperneck 20.2143 -0.950779 10.2709
head 8.35562 0.829937 2.73025
rclavicle 1.23246e-014 1.31198e-014
rhumerus 35.8865 76.5033 -44.4825
rradius 121.176
rwrist -32.9732
rhand -3.96229 -60.8487
rfingers 7.12502
rthumb 21.7902 -89.642
lclavicle 1.23246e-014 1.31198e-014
lhumerus 17.5687 1.06373 74.413
lradius 60.4806
lwrist 68.6069
lhand -3.75484 5.46236
lfingers 7.12502
lthumb 21.9894 34.2324
rfemur -2.37188 22.5258 27.5719
rtibia 1.24075
rfoot -9.87738 -10.4379
rtoes -2.1855
lfemur 13.7047 -45.7061 -17.5657
ltibia -4.69048
lfoot -36.7217 57.6917
ltoes 20.2904
355
root -0.862836 17.5573 7.52581 7.83441 -11.0599 -9.34791
lowerback 3.23417 -2.03401 3.95007
upperback -7.34686 -2.26955 2.2347
thorax -9.66699 -1.31429 0.435086
lowerneck -11.9727 1.66418 3.73795
upperneck 20.2247 -0.792348 10.2772
head 8.34612 0.910167 2.73786
rclavicle 8.94531e-015 -3.37934e-014
rhumerus 30.9518 76.3457 -49.4884
rradius 120.721
rwrist -32.4388
rhand -3.27563 -60.6837
rfingers 7.12502
rthumb 22.4494 -89.3989
lclavicle 8.94531e-015 -3.37934e-014
lhumerus 17.5701 1.05329 74.4506
lradius 60.5293
lwrist 68.6271
lhand -3.82258 5.42834
lfingers 7.12502
lthumb 21.9243 34.206
rfemur -2.38456 22.5586 27.534
rtibia 1.22994
rfoot -9.86285 -10.4872
rtoes -2.27228
lfemur 13.5521 -45.5078 -17.4546
ltibia -4.66863
lfoot -36.3059 57.5843
ltoes 20.0337
